<?xml version="1.0" encoding="iso-8859-1"?>
<!-- Generator: Adobe Illustrator 19.0.0, SVG Export Plug-In . SVG Version: 6.00 Build 0)  -->
<svg version="1.1" id="Layer_1" xmlns="http://www.w3.org/2000/svg" xmlns:xlink="http://www.w3.org/1999/xlink" x="0px" y="0px"
	 viewBox="0 0 512 512" style="enable-background:new 0 0 512 512;" xml:space="preserve">
<path style="fill:#333333;" d="M472.91,169.424L342.58,39.097l15.838-10.026c14.435-9.138,31.106-13.969,48.214-13.97h0.001
	c49.774,0,90.27,40.495,90.27,90.271c0,17.108-4.829,33.78-13.967,48.215L472.91,169.424z"/>
<path style="fill:#4D4D4D;" d="M39.093,169.424l-10.025-15.838c-9.138-14.435-13.967-31.107-13.967-48.215
	c0-49.775,40.495-90.271,90.27-90.271h0.001c17.107,0.001,33.779,4.832,48.214,13.97l15.838,10.026L39.093,169.424z"/>
<path style="fill:#333333;" d="M406.633,496.897L406.633,496.897c-17.108-0.001-33.781-4.832-48.215-13.971L342.581,472.9
	L472.91,342.573l10.026,15.839c9.137,14.435,13.966,31.107,13.966,48.215C496.902,456.402,456.407,496.897,406.633,496.897z"/>
<path style="fill:#4D4D4D;" d="M105.371,496.897L105.371,496.897c-49.775,0-90.271-40.495-90.271-90.271
	c0-17.108,4.829-33.78,13.966-48.215l10.026-15.839L169.422,472.9l-15.837,10.026C139.151,492.065,122.479,496.896,105.371,496.897z
	"/>
<path style="fill:#808081;" d="M392.652,46.742l72.61,72.609c1.085-4.552,1.64-9.241,1.64-13.98
	c0-33.233-27.037-60.271-60.27-60.271C401.894,45.101,397.205,45.656,392.652,46.742z"/>
<path style="fill:#A9A8AE;" d="M105.37,45.1c-33.232,0-60.27,27.037-60.27,60.271c0,4.739,0.555,9.428,1.64,13.98l72.61-72.609
	C114.798,45.656,110.109,45.101,105.37,45.1L105.37,45.1z"/>
<path style="fill:#808081;" d="M392.652,465.256c4.553,1.086,9.241,1.641,13.981,1.642c33.231,0,60.269-27.037,60.269-60.271
	c0-4.74-0.555-9.428-1.64-13.98L392.652,465.256z"/>
<path style="fill:#A9A8AE;" d="M46.74,392.647c-1.085,4.552-1.64,9.24-1.64,13.98c0,33.233,27.037,60.271,60.27,60.271
	c4.739,0,9.428-0.556,13.98-1.642L46.74,392.647z"/>
<path style="fill:#EBEBEC;" d="M256.004,512c-68.381,0-132.669-26.628-181.021-74.979C26.631,388.669,0.002,324.381,0,255.999
	c0.002-68.382,26.631-132.669,74.982-181.02C123.335,26.628,187.622,0,256.002,0c68.382,0,132.67,26.628,181.021,74.98
	C485.372,123.332,512,187.618,512,255.999s-26.628,132.668-74.978,181.02S324.385,512,256.004,512z"/>
<path style="fill:#CACACD;" d="M256.004,512c0-69.154-0.002-434.468-0.002-512c68.382,0,132.67,26.628,181.021,74.98
	C485.372,123.332,512,187.618,512,255.999s-26.628,132.668-74.978,181.02S324.385,512,256.004,512z"/>
<path style="fill:#4D4D4D;" d="M256.002,30c-60.367,0-117.12,23.508-159.806,66.192C53.51,138.877,30.001,195.631,30,255.999
	c0.001,60.368,23.51,117.123,66.196,159.808S195.636,482,256.004,482c60.367,0,117.12-23.508,159.805-66.195
	C458.493,373.12,482,316.366,482,255.999s-23.507-117.121-66.191-159.805C373.124,53.508,316.37,30,256.002,30z"/>
<path style="fill:#333333;" d="M256.002,30c0,62.262,0.002,380.68,0.002,452c60.367,0,117.12-23.508,159.805-66.195
	C458.493,373.12,482,316.366,482,255.999s-23.507-117.121-66.191-159.805C373.124,53.508,316.37,30,256.002,30z"/>
<path style="fill:#64DDE0;" d="M256.003,178.492c-42.736,0-77.505,34.77-77.505,77.507s34.769,77.506,77.504,77.506
	c42.737,0,77.506-34.768,77.506-77.503C333.505,213.266,298.736,178.495,256.003,178.492z"/>
<path style="fill:#00C2C7;" d="M256.003,178.492c0,31.7-0.001,93.774-0.001,155.013c42.737,0,77.506-34.768,77.506-77.503
	C333.505,213.266,298.736,178.495,256.003,178.492z"/>
<path style="fill:#EBEBEC;" d="M256.002,229.011c-14.883,0-26.99,12.104-26.99,26.982c0,14.887,12.107,26.999,26.99,26.999
	c14.883,0,26.99-12.111,26.99-26.999C282.992,241.116,270.885,229.011,256.002,229.011z"/>
<path style="fill:#CACACD;" d="M256.002,229.011c0,14.921,0,30.13,0,53.981c14.883,0,26.99-12.111,26.99-26.999
	C282.992,241.116,270.885,229.011,256.002,229.011z"/>
<g>
</g>
<g>
</g>
<g>
</g>
<g>
</g>
<g>
</g>
<g>
</g>
<g>
</g>
<g>
</g>
<g>
</g>
<g>
</g>
<g>
</g>
<g>
</g>
<g>
</g>
<g>
</g>
<g>
</g>
</svg>
